0
SECTION
2
HEADER
0
ENDSEC
0
SECTION
2
ENTITIES
0
SPLINE
5
100
100
AcDbEntity
8
Layer_1
62
7
100
AcDbSpline
70
8
71
3
72
8
73
4
74
0
40
0
40
0
40
0
40
0
40
1
40
1
40
1
40
1
10
46.787153
20
162.549551
30
0.0
10
46.787144
20
162.946417
30
0.0
10
46.875339
20
163.244074
30
0.0
10
47.051736
20
163.442519
30
0.0
0
SPLINE
5
101
100
AcDbEntity
8
Layer_1
62
7
100
AcDbSpline
70
8
71
3
72
8
73
4
74
0
40
0
40
0
40
0
40
0
40
1
40
1
40
1
40
1
10
47.051736
20
163.442519
30
0.0
10
47.232528
20
163.640946
30
0.0
10
47.468446
20
163.740167
30
0.0
10
47.759496
20
163.740176
30
0.0
0
SPLINE
5
102
100
AcDbEntity
8
Layer_1
62
7
100
AcDbSpline
70
8
71
3
72
8
73
4
74
0
40
0
40
0
40
0
40
0
40
1
40
1
40
1
40
1
10
47.759496
20
163.740176
30
0.0
10
48.054940
20
163.740167
30
0.0
10
48.293065
20
163.640946
30
0.0
10
48.473871
20
163.442519
30
0.0
0
SPLINE
5
103
100
AcDbEntity
8
Layer_1
62
7
100
AcDbSpline
70
8
71
3
72
8
73
4
74
0
40
0
40
0
40
0
40
0
40
1
40
1
40
1
40
1
10
48.473871
20
163.442519
30
0.0
10
48.659071
20
163.248482
30
0.0
10
48.751673
20
162.950825
30
0.0
10
48.751685
20
162.549551
30
0.0
0
SPLINE
5
105
100
AcDbEntity
8
Layer_1
62
7
100
AcDbSpline
70
8
71
3
72
8
73
4
74
0
40
0
40
0
40
0
40
0
40
1
40
1
40
1
40
1
10
48.751685
20
154.909708
30
0.0
10
48.751673
20
154.508421
30
0.0
10
48.659071
20
154.208560
30
0.0
10
48.473871
20
154.010124
30
0.0
0
SPLINE
5
106
100
AcDbEntity
8
Layer_1
62
7
100
AcDbSpline
70
8
71
3
72
8
73
4
74
0
40
0
40
0
40
0
40
0
40
1
40
1
40
1
40
1
10
48.473871
20
154.010124
30
0.0
10
48.288654
20
153.811685
30
0.0
10
48.050529
20
153.712467
30
0.0
10
47.759496
20
153.712467
30
0.0
0
SPLINE
5
107
100
AcDbEntity
8
Layer_1
62
7
100
AcDbSpline
70
8
71
3
72
8
73
4
74
0
40
0
40
0
40
0
40
0
40
1
40
1
40
1
40
1
10
47.759496
20
153.712467
30
0.0
10
47.464037
20
153.712467
30
0.0
10
47.228117
20
153.811685
30
0.0
10
47.051736
20
154.010124
30
0.0
0
SPLINE
5
108
100
AcDbEntity
8
Layer_1
62
7
100
AcDbSpline
70
8
71
3
72
8
73
4
74
0
40
0
40
0
40
0
40
0
40
1
40
1
40
1
40
1
10
47.051736
20
154.010124
30
0.0
10
46.875339
20
154.212971
30
0.0
10
46.787144
20
154.512833
30
0.0
10
46.787153
20
154.909708
30
0.0
0
SPLINE
5
10a
100
AcDbEntity
8
Layer_1
62
7
100
AcDbSpline
70
8
71
3
72
8
73
4
74
0
40
0
40
0
40
0
40
0
40
1
40
1
40
1
40
1
10
42.547204
20
154.909708
30
0.0
10
42.547201
20
154.508421
30
0.0
10
42.454599
20
154.208560
30
0.0
10
42.269393
20
154.010124
30
0.0
0
SPLINE
5
10b
100
AcDbEntity
8
Layer_1
62
7
100
AcDbSpline
70
8
71
3
72
8
73
4
74
0
40
0
40
0
40
0
40
0
40
1
40
1
40
1
40
1
10
42.269393
20
154.010124
30
0.0
10
42.084182
20
153.811685
30
0.0
10
41.846057
20
153.712467
30
0.0
10
41.555018
20
153.712467
30
0.0
0
SPLINE
5
10c
100
AcDbEntity
8
Layer_1
62
7
100
AcDbSpline
70
8
71
3
72
8
73
4
74
0
40
0
40
0
40
0
40
0
40
1
40
1
40
1
40
1
10
41.555018
20
153.712467
30
0.0
10
41.259565
20
153.712467
30
0.0
10
41.023644
20
153.811685
30
0.0
10
40.847256
20
154.010124
30
0.0
0
SPLINE
5
10d
100
AcDbEntity
8
Layer_1
62
7
100
AcDbSpline
70
8
71
3
72
8
73
4
74
0
40
0
40
0
40
0
40
0
40
1
40
1
40
1
40
1
10
40.847256
20
154.010124
30
0.0
10
40.670867
20
154.212971
30
0.0
10
40.582672
20
154.512833
30
0.0
10
40.582672
20
154.909708
30
0.0
0
SPLINE
5
10f
100
AcDbEntity
8
Layer_1
62
7
100
AcDbSpline
70
8
71
3
72
8
73
4
74
0
40
0
40
0
40
0
40
0
40
1
40
1
40
1
40
1
10
40.582672
20
162.549551
30
0.0
10
40.582672
20
162.946417
30
0.0
10
40.668662
20
163.244074
30
0.0
10
40.840643
20
163.442519
30
0.0
0
SPLINE
5
110
100
AcDbEntity
8
Layer_1
62
7
100
AcDbSpline
70
8
71
3
72
8
73
4
74
0
40
0
40
0
40
0
40
0
40
1
40
1
40
1
40
1
10
40.840643
20
163.442519
30
0.0
10
41.017029
20
163.640946
30
0.0
10
41.255154
20
163.740167
30
0.0
10
41.555018
20
163.740176
30
0.0
0
SPLINE
5
111
100
AcDbEntity
8
Layer_1
62
7
100
AcDbSpline
70
8
71
3
72
8
73
4
74
0
40
0
40
0
40
0
40
0
40
1
40
1
40
1
40
1
10
41.555018
20
163.740176
30
0.0
10
41.850465
20
163.740167
30
0.0
10
42.088590
20
163.640946
30
0.0
10
42.269393
20
163.442519
30
0.0
0
SPLINE
5
112
100
AcDbEntity
8
Layer_1
62
7
100
AcDbSpline
70
8
71
3
72
8
73
4
74
0
40
0
40
0
40
0
40
0
40
1
40
1
40
1
40
1
10
42.269393
20
163.442519
30
0.0
10
42.454599
20
163.248482
30
0.0
10
42.547201
20
162.950825
30
0.0
10
42.547204
20
162.549551
30
0.0
0
SPLINE
5
114
100
AcDbEntity
8
Layer_1
62
7
100
AcDbSpline
70
8
71
3
72
8
73
4
74
0
40
0
40
0
40
0
40
0
40
1
40
1
40
1
40
1
10
56.900851
20
159.678823
30
0.0
10
57.200704
20
159.678817
30
0.0
10
57.423394
20
159.610466
30
0.0
10
57.568922
20
159.473769
30
0.0
0
SPLINE
5
115
100
AcDbEntity
8
Layer_1
62
7
100
AcDbSpline
70
8
71
3
72
8
73
4
74
0
40
0
40
0
40
0
40
0
40
1
40
1
40
1
40
1
10
57.568922
20
159.473769
30
0.0
10
57.718847
20
159.341471
30
0.0
10
57.793811
20
159.165085
30
0.0
10
57.793819
20
158.944602
30
0.0
0
SPLINE
5
116
100
AcDbEntity
8
Layer_1
62
7
100
AcDbSpline
70
8
71
3
72
8
73
4
74
0
40
0
40
0
40
0
40
0
40
1
40
1
40
1
40
1
10
57.793819
20
158.944602
30
0.0
10
57.793811
20
158.724113
30
0.0
10
57.721051
20
158.543313
30
0.0
10
57.575537
20
158.402208
30
0.0
0
SPLINE
5
117
100
AcDbEntity
8
Layer_1
62
7
100
AcDbSpline
70
8
71
3
72
8
73
4
74
0
40
0
40
0
40
0
40
0
40
1
40
1
40
1
40
1
10
57.575537
20
158.402208
30
0.0
10
57.430010
20
158.265502
30
0.0
10
57.205115
20
158.197151
30
0.0
10
56.900851
20
158.197156
30
0.0
0
SPLINE
5
119
100
AcDbEntity
8
Layer_1
62
7
100
AcDbSpline
70
8
71
3
72
8
73
4
74
0
40
0
40
0
40
0
40
0
40
1
40
1
40
1
40
1
10
57.403560
20
155.438874
30
0.0
10
57.712232
20
155.438871
30
0.0
10
57.943742
20
155.366112
30
0.0
10
58.098089
20
155.220592
30
0.0
0
SPLINE
5
11a
100
AcDbEntity
8
Layer_1
62
7
100
AcDbSpline
70
8
71
3
72
8
73
4
74
0
40
0
40
0
40
0
40
0
40
1
40
1
40
1
40
1
10
58.098089
20
155.220592
30
0.0
10
58.256833
20
155.079481
30
0.0
10
58.336205
20
154.889862
30
0.0
10
58.336214
20
154.651740
30
0.0
0
SPLINE
5
11b
100
AcDbEntity
8
Layer_1
62
7
100
AcDbSpline
70
8
71
3
72
8
73
4
74
0
40
0
40
0
40
0
40
0
40
1
40
1
40
1
40
1
10
58.336214
20
154.651740
30
0.0
10
58.336205
20
154.422431
30
0.0
10
58.256833
20
154.235019
30
0.0
10
58.098089
20
154.089499
30
0.0
0
SPLINE
5
11c
100
AcDbEntity
8
Layer_1
62
7
100
AcDbSpline
70
8
71
3
72
8
73
4
74
0
40
0
40
0
40
0
40
0
40
1
40
1
40
1
40
1
10
58.098089
20
154.089499
30
0.0
10
57.943742
20
153.948388
30
0.0
10
57.712232
20
153.877833
30
0.0
10
57.403560
20
153.877833
30
0.0
0
SPLINE
5
11e
100
AcDbEntity
8
Layer_1
62
7
100
AcDbSpline
70
8
71
3
72
8
73
4
74
0
40
0
40
0
40
0
40
0
40
1
40
1
40
1
40
1
10
52.065589
20
153.877833
30
0.0
10
51.637844
20
153.877833
30
0.0
10
51.329164
20
153.972642
30
0.0
10
51.139547
20
154.162259
30
0.0
0
SPLINE
5
11f
100
AcDbEntity
8
Layer_1
62
7
100
AcDbSpline
70
8
71
3
72
8
73
4
74
0
40
0
40
0
40
0
40
0
40
1
40
1
40
1
40
1
10
51.139547
20
154.162259
30
0.0
10
50.954339
20
154.351876
30
0.0
10
50.861736
20
154.658352
30
0.0
10
50.861736
20
155.081685
30
0.0
0
SPLINE
5
121
100
AcDbEntity
8
Layer_1
62
7
100
AcDbSpline
70
8
71
3
72
8
73
4
74
0
40
0
40
0
40
0
40
0
40
1
40
1
40
1
40
1
10
50.861736
20
162.370958
30
0.0
10
50.861736
20
162.653171
30
0.0
10
50.903626
20
162.882477
30
0.0
10
50.987412
20
163.058874
30
0.0
0
SPLINE
5
122
100
AcDbEntity
8
Layer_1
62
7
100
AcDbSpline
70
8
71
3
72
8
73
4
74
0
40
0
40
0
40
0
40
0
40
1
40
1
40
1
40
1
10
50.987412
20
163.058874
30
0.0
10
51.071196
20
163.239663
30
0.0
10
51.201283
20
163.369751
30
0.0
10
51.377672
20
163.449134
30
0.0
0
SPLINE
5
123
100
AcDbEntity
8
Layer_1
62
7
100
AcDbSpline
70
8
71
3
72
8
73
4
74
0
40
0
40
0
40
0
40
0
40
1
40
1
40
1
40
1
10
51.377672
20
163.449134
30
0.0
10
51.558469
20
163.532909
30
0.0
10
51.787775
20
163.574802
30
0.0
10
52.065589
20
163.574810
30
0.0
0
SPLINE
5
125
100
AcDbEntity
8
Layer_1
62
7
100
AcDbSpline
70
8
71
3
72
8
73
4
74
0
40
0
40
0
40
0
40
0
40
1
40
1
40
1
40
1
10
57.251422
20
163.574810
30
0.0
10
57.564505
20
163.574802
30
0.0
10
57.796015
20
163.504246
30
0.0
10
57.945954
20
163.363144
30
0.0
0
SPLINE
5
126
100
AcDbEntity
8
Layer_1
62
7
100
AcDbSpline
70
8
71
3
72
8
73
4
74
0
40
0
40
0
40
0
40
0
40
1
40
1
40
1
40
1
10
57.945954
20
163.363144
30
0.0
10
58.100287
20
163.226435
30
0.0
10
58.177458
20
163.045635
30
0.0
10
58.177464
20
162.820749
30
0.0
0
SPLINE
5
127
100
AcDbEntity
8
Layer_1
62
7
100
AcDbSpline
70
8
71
3
72
8
73
4
74
0
40
0
40
0
40
0
40
0
40
1
40
1
40
1
40
1
10
58.177464
20
162.820749
30
0.0
10
58.177458
20
162.591435
30
0.0
10
58.100287
20
162.406227
30
0.0
10
57.945954
20
162.265124
30
0.0
0
SPLINE
5
128
100
AcDbEntity
8
Layer_1
62
7
100
AcDbSpline
70
8
71
3
72
8
73
4
74
0
40
0
40
0
40
0
40
0
40
1
40
1
40
1
40
1
10
57.945954
20
162.265124
30
0.0
10
57.796015
20
162.128413
30
0.0
10
57.564505
20
162.060064
30
0.0
10
57.251422
20
162.060073
30
0.0
0
SPLINE
5
12a
100
AcDbEntity
8
Layer_1
62
7
100
AcDbSpline
70
8
71
3
72
8
73
4
74
0
40
0
40
0
40
0
40
0
40
1
40
1
40
1
40
1
10
65.817310
20
155.491791
30
0.0
10
66.134801
20
155.491788
30
0.0
10
66.377337
20
155.414620
30
0.0
10
66.544912
20
155.260281
30
0.0
0
SPLINE
5
12b
100
AcDbEntity
8
Layer_1
62
7
100
AcDbSpline
70
8
71
3
72
8
73
4
74
0
40
0
40
0
40
0
40
0
40
1
40
1
40
1
40
1
10
66.544912
20
155.260281
30
0.0
10
66.716885
20
155.105940
30
0.0
10
66.802875
20
154.911912
30
0.0
10
66.802881
20
154.678198
30
0.0
0
SPLINE
5
12c
100
AcDbEntity
8
Layer_1
62
7
100
AcDbSpline
70
8
71
3
72
8
73
4
74
0
40
0
40
0
40
0
40
0
40
1
40
1
40
1
40
1
10
66.802881
20
154.678198
30
0.0
10
66.802875
20
154.440070
30
0.0
10
66.719089
20
154.246045
30
0.0
10
66.551528
20
154.096115
30
0.0
0
SPLINE
5
12d
100
AcDbEntity
8
Layer_1
62
7
100
AcDbSpline
70
8
71
3
72
8
73
4
74
0
40
0
40
0
40
0
40
0
40
1
40
1
40
1
40
1
10
66.551528
20
154.096115
30
0.0
10
66.383950
20
153.950592
30
0.0
10
66.139212
20
153.877833
30
0.0
10
65.817310
20
153.877833
30
0.0
0
SPLINE
5
12f
100
AcDbEntity
8
Layer_1
62
7
100
AcDbSpline
70
8
71
3
72
8
73
4
74
0
40
0
40
0
40
0
40
0
40
1
40
1
40
1
40
1
10
61.074653
20
153.877833
30
0.0
10
60.646908
20
153.877833
30
0.0
10
60.338228
20
153.972642
30
0.0
10
60.148611
20
154.162259
30
0.0
0
SPLINE
5
130
100
AcDbEntity
8
Layer_1
62
7
100
AcDbSpline
70
8
71
3
72
8
73
4
74
0
40
0
40
0
40
0
40
0
40
1
40
1
40
1
40
1
10
60.148611
20
154.162259
30
0.0
10
59.963403
20
154.351876
30
0.0
10
59.870797
20
154.658352
30
0.0
10
59.870797
20
155.081685
30
0.0
0
SPLINE
5
132
100
AcDbEntity
8
Layer_1
62
7
100
AcDbSpline
70
8
71
3
72
8
73
4
74
0
40
0
40
0
40
0
40
0
40
1
40
1
40
1
40
1
10
59.870797
20
162.549551
30
0.0
10
59.870797
20
162.946417
30
0.0
10
59.958992
20
163.244074
30
0.0
10
60.135381
20
163.442519
30
0.0
0
SPLINE
5
133
100
AcDbEntity
8
Layer_1
62
7
100
AcDbSpline
70
8
71
3
72
8
73
4
74
0
40
0
40
0
40
0
40
0
40
1
40
1
40
1
40
1
10
60.135381
20
163.442519
30
0.0
10
60.316178
20
163.640946
30
0.0
10
60.552099
20
163.740167
30
0.0
10
60.843143
20
163.740176
30
0.0
0
SPLINE
5
134
100
AcDbEntity
8
Layer_1
62
7
100
AcDbSpline
70
8
71
3
72
8
73
4
74
0
40
0
40
0
40
0
40
0
40
1
40
1
40
1
40
1
10
60.843143
20
163.740176
30
0.0
10
61.138590
20
163.740167
30
0.0
10
61.376715
20
163.640946
30
0.0
10
61.557518
20
163.442519
30
0.0
0
SPLINE
5
135
100
AcDbEntity
8
Layer_1
62
7
100
AcDbSpline
70
8
71
3
72
8
73
4
74
0
40
0
40
0
40
0
40
0
40
1
40
1
40
1
40
1
10
61.557518
20
163.442519
30
0.0
10
61.742724
20
163.248482
30
0.0
10
61.835326
20
162.950825
30
0.0
10
61.835329
20
162.549551
30
0.0
0
SPLINE
5
137
100
AcDbEntity
8
Layer_1
62
7
100
AcDbSpline
70
8
71
3
72
8
73
4
74
0
40
0
40
0
40
0
40
0
40
1
40
1
40
1
40
1
10
73.992935
20
155.491791
30
0.0
10
74.310426
20
155.491788
30
0.0
10
74.552962
20
155.414620
30
0.0
10
74.720537
20
155.260281
30
0.0
0
SPLINE
5
138
100
AcDbEntity
8
Layer_1
62
7
100
AcDbSpline
70
8
71
3
72
8
73
4
74
0
40
0
40
0
40
0
40
0
40
1
40
1
40
1
40
1
10
74.720537
20
155.260281
30
0.0
10
74.892510
20
155.105940
30
0.0
10
74.978500
20
154.911912
30
0.0
10
74.978506
20
154.678198
30
0.0
0
SPLINE
5
139
100
AcDbEntity
8
Layer_1
62
7
100
AcDbSpline
70
8
71
3
72
8
73
4
74
0
40
0
40
0
40
0
40
0
40
1
40
1
40
1
40
1
10
74.978506
20
154.678198
30
0.0
10
74.978500
20
154.440070
30
0.0
10
74.894714
20
154.246045
30
0.0
10
74.727153
20
154.096115
30
0.0
0
SPLINE
5
13a
100
AcDbEntity
8
Layer_1
62
7
100
AcDbSpline
70
8
71
3
72
8
73
4
74
0
40
0
40
0
40
0
40
0
40
1
40
1
40
1
40
1
10
74.727153
20
154.096115
30
0.0
10
74.559575
20
153.950592
30
0.0
10
74.314837
20
153.877833
30
0.0
10
73.992935
20
153.877833
30
0.0
0
SPLINE
5
13c
100
AcDbEntity
8
Layer_1
62
7
100
AcDbSpline
70
8
71
3
72
8
73
4
74
0
40
0
40
0
40
0
40
0
40
1
40
1
40
1
40
1
10
69.250278
20
153.877833
30
0.0
10
68.822533
20
153.877833
30
0.0
10
68.513853
20
153.972642
30
0.0
10
68.324236
20
154.162259
30
0.0
0
SPLINE
5
13d
100
AcDbEntity
8
Layer_1
62
7
100
AcDbSpline
70
8
71
3
72
8
73
4
74
0
40
0
40
0
40
0
40
0
40
1
40
1
40
1
40
1
10
68.324236
20
154.162259
30
0.0
10
68.139028
20
154.351876
30
0.0
10
68.046422
20
154.658352
30
0.0
10
68.046422
20
155.081685
30
0.0
0
SPLINE
5
13f
100
AcDbEntity
8
Layer_1
62
7
100
AcDbSpline
70
8
71
3
72
8
73
4
74
0
40
0
40
0
40
0
40
0
40
1
40
1
40
1
40
1
10
68.046422
20
162.549551
30
0.0
10
68.046422
20
162.946417
30
0.0
10
68.134617
20
163.244074
30
0.0
10
68.311006
20
163.442519
30
0.0
0
SPLINE
5
140
100
AcDbEntity
8
Layer_1
62
7
100
AcDbSpline
70
8
71
3
72
8
73
4
74
0
40
0
40
0
40
0
40
0
40
1
40
1
40
1
40
1
10
68.311006
20
163.442519
30
0.0
10
68.491803
20
163.640946
30
0.0
10
68.727724
20
163.740167
30
0.0
10
69.018768
20
163.740176
30
0.0
0
SPLINE
5
141
100
AcDbEntity
8
Layer_1
62
7
100
AcDbSpline
70
8
71
3
72
8
73
4
74
0
40
0
40
0
40
0
40
0
40
1
40
1
40
1
40
1
10
69.018768
20
163.740176
30
0.0
10
69.314215
20
163.740167
30
0.0
10
69.552340
20
163.640946
30
0.0
10
69.733143
20
163.442519
30
0.0
0
SPLINE
5
142
100
AcDbEntity
8
Layer_1
62
7
100
AcDbSpline
70
8
71
3
72
8
73
4
74
0
40
0
40
0
40
0
40
0
40
1
40
1
40
1
40
1
10
69.733143
20
163.442519
30
0.0
10
69.918349
20
163.248482
30
0.0
10
70.010951
20
162.950825
30
0.0
10
70.010954
20
162.549551
30
0.0
0
SPLINE
5
143
100
AcDbEntity
8
Layer_1
62
7
100
AcDbSpline
70
8
71
3
72
8
73
4
74
0
40
0
40
0
40
0
40
0
40
1
40
1
40
1
40
1
10
79.866685
20
163.740176
30
0.0
10
80.872096
20
163.740167
30
0.0
10
81.734194
20
163.535113
30
0.0
10
82.452986
20
163.125019
30
0.0
0
SPLINE
5
144
100
AcDbEntity
8
Layer_1
62
7
100
AcDbSpline
70
8
71
3
72
8
73
4
74
0
40
0
40
0
40
0
40
0
40
1
40
1
40
1
40
1
10
82.452986
20
163.125019
30
0.0
10
83.176172
20
162.719316
30
0.0
10
83.722978
20
162.139439
30
0.0
10
84.093403
20
161.385384
30
0.0
0
SPLINE
5
145
100
AcDbEntity
8
Layer_1
62
7
100
AcDbSpline
70
8
71
3
72
8
73
4
74
0
40
0
40
0
40
0
40
0
40
1
40
1
40
1
40
1
10
84.093403
20
161.385384
30
0.0
10
84.463808
20
160.635726
30
0.0
10
84.649016
20
159.753781
30
0.0
10
84.649028
20
158.739551
30
0.0
0
SPLINE
5
146
100
AcDbEntity
8
Layer_1
62
7
100
AcDbSpline
70
8
71
3
72
8
73
4
74
0
40
0
40
0
40
0
40
0
40
1
40
1
40
1
40
1
10
84.649028
20
158.739551
30
0.0
10
84.649016
20
157.989895
30
0.0
10
84.547594
20
157.308594
30
0.0
10
84.344756
20
156.695644
30
0.0
0
SPLINE
5
147
100
AcDbEntity
8
Layer_1
62
7
100
AcDbSpline
70
8
71
3
72
8
73
4
74
0
40
0
40
0
40
0
40
0
40
1
40
1
40
1
40
1
10
84.344756
20
156.695644
30
0.0
10
84.141900
20
156.082691
30
0.0
10
83.837630
20
155.551320
30
0.0
10
83.431944
20
155.101531
30
0.0
0
SPLINE
5
148
100
AcDbEntity
8
Layer_1
62
7
100
AcDbSpline
70
8
71
3
72
8
73
4
74
0
40
0
40
0
40
0
40
0
40
1
40
1
40
1
40
1
10
83.431944
20
155.101531
30
0.0
10
83.026242
20
154.651737
30
0.0
10
82.527944
20
154.307778
30
0.0
10
81.937047
20
154.069656
30
0.0
0
SPLINE
5
149
100
AcDbEntity
8
Layer_1
62
7
100
AcDbSpline
70
8
71
3
72
8
73
4
74
0
40
0
40
0
40
0
40
0
40
1
40
1
40
1
40
1
10
81.937047
20
154.069656
30
0.0
10
81.346139
20
153.831531
30
0.0
10
80.669249
20
153.712467
30
0.0
10
79.906371
20
153.712467
30
0.0
0
SPLINE
5
14a
100
AcDbEntity
8
Layer_1
62
7
100
AcDbSpline
70
8
71
3
72
8
73
4
74
0
40
0
40
0
40
0
40
0
40
1
40
1
40
1
40
1
10
79.906371
20
153.712467
30
0.0
10
79.147896
20
153.712467
30
0.0
10
78.468799
20
153.833735
30
0.0
10
77.869079
20
154.076269
30
0.0
0
SPLINE
5
14b
100
AcDbEntity
8
Layer_1
62
7
100
AcDbSpline
70
8
71
3
72
8
73
4
74
0
40
0
40
0
40
0
40
0
40
1
40
1
40
1
40
1
10
77.869079
20
154.076269
30
0.0
10
77.269354
20
154.323213
30
0.0
10
76.768853
20
154.669376
30
0.0
10
76.367569
20
155.114759
30
0.0
0
SPLINE
5
14c
100
AcDbEntity
8
Layer_1
62
7
100
AcDbSpline
70
8
71
3
72
8
73
4
74
0
40
0
40
0
40
0
40
0
40
1
40
1
40
1
40
1
10
76.367569
20
155.114759
30
0.0
10
75.966283
20
155.560140
30
0.0
10
75.662014
20
156.095921
30
0.0
10
75.454756
20
156.722102
30
0.0
0
SPLINE
5
14d
100
AcDbEntity
8
Layer_1
62
7
100
AcDbSpline
70
8
71
3
72
8
73
4
74
0
40
0
40
0
40
0
40
0
40
1
40
1
40
1
40
1
10
75.454756
20
156.722102
30
0.0
10
75.251908
20
157.348280
30
0.0
10
75.150486
20
158.025173
30
0.0
10
75.150486
20
158.752781
30
0.0
0
SPLINE
5
14e
100
AcDbEntity
8
Layer_1
62
7
100
AcDbSpline
70
8
71
3
72
8
73
4
74
0
40
0
40
0
40
0
40
0
40
1
40
1
40
1
40
1
10
75.150486
20
158.752781
30
0.0
10
75.150486
20
159.498017
30
0.0
10
75.256319
20
160.181523
30
0.0
10
75.467986
20
160.803301
30
0.0
0
SPLINE
5
14f
100
AcDbEntity
8
Layer_1
62
7
100
AcDbSpline
70
8
71
3
72
8
73
4
74
0
40
0
40
0
40
0
40
0
40
1
40
1
40
1
40
1
10
75.467986
20
160.803301
30
0.0
10
75.684061
20
161.425064
30
0.0
10
75.994946
20
161.954231
30
0.0
10
76.400643
20
162.390801
30
0.0
0
SPLINE
5
150
100
AcDbEntity
8
Layer_1
62
7
100
AcDbSpline
70
8
71
3
72
8
73
4
74
0
40
0
40
0
40
0
40
0
40
1
40
1
40
1
40
1
10
76.400643
20
162.390801
30
0.0
10
76.806335
20
162.827353
30
0.0
10
77.300224
20
163.160288
30
0.0
10
77.882310
20
163.389602
30
0.0
0
SPLINE
5
151
100
AcDbEntity
8
Layer_1
62
7
100
AcDbSpline
70
8
71
3
72
8
73
4
74
0
40
0
40
0
40
0
40
0
40
1
40
1
40
1
40
1
10
77.882310
20
163.389602
30
0.0
10
78.464387
20
163.623307
30
0.0
10
79.125846
20
163.740167
30
0.0
10
79.866685
20
163.740176
30
0.0
0
SPLINE
5
152
100
AcDbEntity
8
Layer_1
62
7
100
AcDbSpline
70
8
71
3
72
8
73
4
74
0
40
0
40
0
40
0
40
0
40
1
40
1
40
1
40
1
10
82.658037
20
158.752781
30
0.0
10
82.658029
20
159.462739
30
0.0
10
82.543376
20
160.077896
30
0.0
10
82.314079
20
160.598249
30
0.0
0
SPLINE
5
153
100
AcDbEntity
8
Layer_1
62
7
100
AcDbSpline
70
8
71
3
72
8
73
4
74
0
40
0
40
0
40
0
40
0
40
1
40
1
40
1
40
1
10
82.314079
20
160.598249
30
0.0
10
82.084768
20
161.118588
30
0.0
10
81.756242
20
161.511055
30
0.0
10
81.328506
20
161.775644
30
0.0
0
SPLINE
5
154
100
AcDbEntity
8
Layer_1
62
7
100
AcDbSpline
70
8
71
3
72
8
73
4
74
0
40
0
40
0
40
0
40
0
40
1
40
1
40
1
40
1
10
81.328506
20
161.775644
30
0.0
10
80.905167
20
162.044630
30
0.0
10
80.417893
20
162.179126
30
0.0
10
79.866685
20
162.179134
30
0.0
0
SPLINE
5
155
100
AcDbEntity
8
Layer_1
62
7
100
AcDbSpline
70
8
71
3
72
8
73
4
74
0
40
0
40
0
40
0
40
0
40
1
40
1
40
1
40
1
10
79.866685
20
162.179134
30
0.0
10
79.474215
20
162.179126
30
0.0
10
79.110411
20
162.104162
30
0.0
10
78.775278
20
161.954240
30
0.0
0
SPLINE
5
156
100
AcDbEntity
8
Layer_1
62
7
100
AcDbSpline
70
8
71
3
72
8
73
4
74
0
40
0
40
0
40
0
40
0
40
1
40
1
40
1
40
1
10
78.775278
20
161.954240
30
0.0
10
78.444544
20
161.808709
30
0.0
10
78.157914
20
161.594838
30
0.0
10
77.915381
20
161.312624
30
0.0
0
SPLINE
5
157
100
AcDbEntity
8
Layer_1
62
7
100
AcDbSpline
70
8
71
3
72
8
73
4
74
0
40
0
40
0
40
0
40
0
40
1
40
1
40
1
40
1
10
77.915381
20
161.312624
30
0.0
10
77.677253
20
161.030394
30
0.0
10
77.487636
20
160.668796
30
0.0
10
77.346528
20
160.227833
30
0.0
0
SPLINE
5
158
100
AcDbEntity
8
Layer_1
62
7
100
AcDbSpline
70
8
71
3
72
8
73
4
74
0
40
0
40
0
40
0
40
0
40
1
40
1
40
1
40
1
10
77.346528
20
160.227833
30
0.0
10
77.209825
20
159.791263
30
0.0
10
77.141474
20
159.299581
30
0.0
10
77.141476
20
158.752781
30
0.0
0
SPLINE
5
159
100
AcDbEntity
8
Layer_1
62
7
100
AcDbSpline
70
8
71
3
72
8
73
4
74
0
40
0
40
0
40
0
40
0
40
1
40
1
40
1
40
1
10
77.141476
20
158.752781
30
0.0
10
77.141474
20
158.201562
30
0.0
10
77.209825
20
157.703262
30
0.0
10
77.346528
20
157.257884
30
0.0
0
SPLINE
5
15a
100
AcDbEntity
8
Layer_1
62
7
100
AcDbSpline
70
8
71
3
72
8
73
4
74
0
40
0
40
0
40
0
40
0
40
1
40
1
40
1
40
1
10
77.346528
20
157.257884
30
0.0
10
77.487636
20
156.812501
30
0.0
10
77.683868
20
156.442084
30
0.0
10
77.935226
20
156.146634
30
0.0
0
SPLINE
5
15b
100
AcDbEntity
8
Layer_1
62
7
100
AcDbSpline
70
8
71
3
72
8
73
4
74
0
40
0
40
0
40
0
40
0
40
1
40
1
40
1
40
1
10
77.935226
20
156.146634
30
0.0
10
78.190985
20
155.855589
30
0.0
10
78.482026
20
155.637310
30
0.0
10
78.808351
20
155.491791
30
0.0
0
SPLINE
5
15c
100
AcDbEntity
8
Layer_1
62
7
100
AcDbSpline
70
8
71
3
72
8
73
4
74
0
40
0
40
0
40
0
40
0
40
1
40
1
40
1
40
1
10
78.808351
20
155.491791
30
0.0
10
79.139076
20
155.346269
30
0.0
10
79.500671
20
155.273509
30
0.0
10
79.893143
20
155.273509
30
0.0
0
SPLINE
5
15d
100
AcDbEntity
8
Layer_1
62
7
100
AcDbSpline
70
8
71
3
72
8
73
4
74
0
40
0
40
0
40
0
40
0
40
1
40
1
40
1
40
1
10
79.893143
20
155.273509
30
0.0
10
80.395846
20
155.273509
30
0.0
10
80.856661
20
155.399185
30
0.0
10
81.275589
20
155.650541
30
0.0
0
SPLINE
5
15e
100
AcDbEntity
8
Layer_1
62
7
100
AcDbSpline
70
8
71
3
72
8
73
4
74
0
40
0
40
0
40
0
40
0
40
1
40
1
40
1
40
1
10
81.275589
20
155.650541
30
0.0
10
81.698917
20
155.901894
30
0.0
10
82.034055
20
156.289949
30
0.0
10
82.281006
20
156.814708
30
0.0
0
SPLINE
5
15f
100
AcDbEntity
8
Layer_1
62
7
100
AcDbSpline
70
8
71
3
72
8
73
4
74
0
40
0
40
0
40
0
40
0
40
1
40
1
40
1
40
1
10
82.281006
20
156.814708
30
0.0
10
82.532353
20
157.339460
30
0.0
10
82.658029
20
157.985484
30
0.0
10
82.658037
20
158.752781
30
0.0
0
ENDSEC
0
EOF
